<svg width="46" height="49" viewBox="0 0 46 49" fill="none" xmlns="http://www.w3.org/2000/svg">
<g filter="url(#filter0_d_174_174)">
<path d="M6.81959 37.1289V5.80928H37.1289V37.1289C37.1289 38.8028 35.7719 40.1598 34.0979 40.1598H9.85052C8.17658 40.1598 6.81959 38.8028 6.81959 37.1289Z" fill="#F02222" stroke="white" stroke-width="1.5"/>
<path d="M3.78866 3.78866V2.77835C3.78866 1.66239 4.69332 0.757732 5.80928 0.757732H38.1392C39.2551 0.757732 40.1598 1.66239 40.1598 2.77835V3.78866C40.1598 4.90462 39.2551 5.80928 38.1392 5.80928H5.80928C4.69332 5.80928 3.78866 4.90462 3.78866 3.78866Z" fill="#F98484" stroke="white" stroke-width="1.5"/>
</g>
<path d="M24.5 35.6134V29.4276C24.5 28.8797 24.7661 28.3543 25.2398 27.9669C25.47 27.7786 25.7402 27.6304 26.0339 27.5278C26.5607 27.3438 27.0258 26.9095 27.0258 26.3515V19.6989C27.0258 19.3291 26.8227 18.9904 26.4786 18.855C25.703 18.5496 24.1341 18.0662 21.9742 18.0662C19.8143 18.0662 18.2455 18.5496 17.4698 18.855C17.1258 18.9904 16.9227 19.3291 16.9227 19.6989V26.3515C16.9227 26.9095 17.3877 27.3438 17.9145 27.5278C18.2083 27.6304 18.4784 27.7786 18.7087 27.9669C19.1823 28.3543 19.4485 28.8797 19.4485 29.4276V35.6134M21.7848 16.0005C21.7848 16.0005 19.7642 14.9676 19.7642 13.6766C19.7642 13.1977 19.9968 12.7385 20.4107 12.3999C20.8247 12.0613 21.3862 11.8711 21.9717 11.8711C22.5572 11.8711 23.1187 12.0613 23.5327 12.3999C23.9466 12.7385 24.1792 13.1977 24.1792 13.6766C24.1792 14.9676 22.1637 16.0005 22.1637 16.0005H21.7848Z" fill="white"/>
<path d="M24.5 35.6134V29.4276C24.5 28.8797 24.7661 28.3543 25.2398 27.9669C25.47 27.7786 25.7402 27.6304 26.0339 27.5278C26.5607 27.3438 27.0258 26.9095 27.0258 26.3515V19.6989C27.0258 19.3291 26.8227 18.9904 26.4786 18.855C25.703 18.5496 24.1341 18.0662 21.9742 18.0662C19.8143 18.0662 18.2455 18.5496 17.4698 18.855C17.1258 18.9904 16.9227 19.3291 16.9227 19.6989V26.3515C16.9227 26.9095 17.3877 27.3438 17.9145 27.5278C18.2083 27.6304 18.4784 27.7786 18.7087 27.9669C19.1823 28.3543 19.4485 28.8797 19.4485 29.4276V35.6134H24.5ZM21.7848 16.0005C21.7848 16.0005 19.7642 14.9676 19.7642 13.6766C19.7642 13.1977 19.9968 12.7385 20.4107 12.3999C20.8247 12.0613 21.3862 11.8711 21.9717 11.8711C22.5572 11.8711 23.1187 12.0613 23.5327 12.3999C23.9466 12.7385 24.1792 13.1977 24.1792 13.6766C24.1792 14.9676 22.1637 16.0005 22.1637 16.0005H21.7848Z" stroke="white"/>
<defs>
<filter id="filter0_d_174_174" x="0" y="0" width="45.9691" height="49" filterUnits="userSpaceOnUse" color-interpolation-filters="sRGB">
<feFlood flood-opacity="0" result="BackgroundImageFix"/>
<feColorMatrix in="SourceAlpha" type="matrix" values="0 0 0 0 0 0 0 0 0 0 0 0 0 0 0 0 0 0 127 0" result="hardAlpha"/>
<feOffset dx="1" dy="4"/>
<feGaussianBlur stdDeviation="2"/>
<feComposite in2="hardAlpha" operator="out"/>
<feColorMatrix type="matrix" values="0 0 0 0 0 0 0 0 0 0 0 0 0 0 0 0 0 0 0.25 0"/>
<feBlend mode="normal" in2="BackgroundImageFix" result="effect1_dropShadow_174_174"/>
<feBlend mode="normal" in="SourceGraphic" in2="effect1_dropShadow_174_174" result="shape"/>
</filter>
</defs>
</svg>
