<svg width="46" height="49" viewBox="0 0 46 49" fill="none" xmlns="http://www.w3.org/2000/svg">
<g filter="url(#filter0_d_174_131)">
<path d="M6.81959 37.1289V5.80928H37.1289V37.1289C37.1289 38.8028 35.7719 40.1598 34.0979 40.1598H9.85052C8.17658 40.1598 6.81959 38.8028 6.81959 37.1289Z" fill="#00A98C" stroke="white" stroke-width="1.5"/>
<path d="M19.5862 35.1082V31.4707C19.5862 30.9127 19.1339 30.4604 18.5759 30.4604H15.6123C15.4991 30.4604 15.4072 30.3686 15.4072 30.2553C15.4072 30.2205 15.4161 30.1862 15.433 30.1558L15.4932 30.0473C17.4023 26.5788 18.3927 22.7856 18.3922 18.9441C18.3922 18.7424 18.5227 18.5631 18.7167 18.508C19.7672 18.2097 20.8671 18.06 21.9742 18.0652C23.3215 18.0652 24.426 18.276 25.2322 18.5068C25.4263 18.5623 25.5562 18.7422 25.5562 18.9441C25.5562 22.7863 26.5473 26.5779 28.4553 30.0462L28.5155 30.1547C28.5324 30.1852 28.5412 30.2194 28.5412 30.2543C28.5412 30.3675 28.4494 30.4594 28.3361 30.4594H25.3725C24.8146 30.4594 24.3622 30.9117 24.3622 31.4697V35.1082M21.974 16.0005C21.8566 16.0005 21.7418 15.972 21.6417 15.9107C21.188 15.6331 19.8847 14.7429 19.8847 13.6766C19.8847 13.1977 20.1046 12.7385 20.496 12.3999C20.8874 12.0613 21.4183 11.8711 21.9718 11.8711C22.5254 11.8711 23.0562 12.0613 23.4477 12.3999C23.8391 12.7385 24.059 13.1977 24.059 13.6766C24.059 14.7424 22.7601 15.6323 22.307 15.9103C22.2067 15.9719 22.0917 16.0005 21.974 16.0005Z" fill="white"/>
<path d="M19.5862 35.1082V31.4707C19.5862 30.9127 19.1339 30.4604 18.5759 30.4604H15.6123C15.4991 30.4604 15.4072 30.3686 15.4072 30.2553C15.4072 30.2205 15.4161 30.1862 15.433 30.1558L15.4932 30.0473C17.4023 26.5788 18.3927 22.7856 18.3922 18.9441C18.3922 18.7424 18.5227 18.5631 18.7167 18.508C19.7672 18.2097 20.8671 18.06 21.9742 18.0652C23.3215 18.0652 24.426 18.276 25.2322 18.5068C25.4263 18.5623 25.5562 18.7422 25.5562 18.9441C25.5562 22.7863 26.5473 26.5779 28.4553 30.0462L28.5155 30.1547C28.5324 30.1852 28.5412 30.2194 28.5412 30.2543C28.5412 30.3675 28.4494 30.4594 28.3361 30.4594H25.3725C24.8146 30.4594 24.3622 30.9117 24.3622 31.4697V35.1082H19.5862ZM19.8847 13.6766C19.8847 14.7429 21.188 15.6331 21.6417 15.9107C21.7418 15.972 21.8566 16.0005 21.974 16.0005C22.0917 16.0005 22.2067 15.9719 22.307 15.9103C22.7601 15.6323 24.059 14.7424 24.059 13.6766C24.059 13.1977 23.8391 12.7385 23.4477 12.3999C23.0562 12.0613 22.5254 11.8711 21.9718 11.8711C21.4183 11.8711 20.8874 12.0613 20.496 12.3999C20.1046 12.7385 19.8847 13.1977 19.8847 13.6766Z" stroke="white"/>
<path d="M3.78866 3.78866V2.77835C3.78866 1.66239 4.69332 0.757732 5.80928 0.757732H38.1392C39.2551 0.757732 40.1598 1.66239 40.1598 2.77835V3.78866C40.1598 4.90462 39.2551 5.80928 38.1392 5.80928H5.80928C4.69332 5.80928 3.78866 4.90462 3.78866 3.78866Z" fill="#8DD0C3" stroke="white" stroke-width="1.5"/>
</g>
<defs>
<filter id="filter0_d_174_131" x="0" y="0" width="45.9691" height="49" filterUnits="userSpaceOnUse" color-interpolation-filters="sRGB">
<feFlood flood-opacity="0" result="BackgroundImageFix"/>
<feColorMatrix in="SourceAlpha" type="matrix" values="0 0 0 0 0 0 0 0 0 0 0 0 0 0 0 0 0 0 127 0" result="hardAlpha"/>
<feOffset dx="1" dy="4"/>
<feGaussianBlur stdDeviation="2"/>
<feComposite in2="hardAlpha" operator="out"/>
<feColorMatrix type="matrix" values="0 0 0 0 0 0 0 0 0 0 0 0 0 0 0 0 0 0 0.25 0"/>
<feBlend mode="normal" in2="BackgroundImageFix" result="effect1_dropShadow_174_131"/>
<feBlend mode="normal" in="SourceGraphic" in2="effect1_dropShadow_174_131" result="shape"/>
</filter>
</defs>
</svg>
