<svg width="46" height="49" viewBox="0 0 46 49" fill="none" xmlns="http://www.w3.org/2000/svg">
<g filter="url(#filter0_d_174_171)">
<path d="M6.81959 37.1289V5.80928H37.1289V37.1289C37.1289 38.8028 35.7719 40.1598 34.0979 40.1598H9.85052C8.17658 40.1598 6.81959 38.8028 6.81959 37.1289Z" fill="#F02222" stroke="white" stroke-width="1.5"/>
<path d="M3.78866 3.78866V2.77835C3.78866 1.66239 4.69332 0.757732 5.80928 0.757732H38.1392C39.2551 0.757732 40.1598 1.66239 40.1598 2.77835V3.78866C40.1598 4.90462 39.2551 5.80928 38.1392 5.80928H5.80928C4.69332 5.80928 3.78866 4.90462 3.78866 3.78866Z" fill="#F98484" stroke="white" stroke-width="1.5"/>
</g>
<path d="M29.5515 35.6134V29.4276C29.5515 28.8797 29.8177 28.3543 30.2913 27.9669C30.5216 27.7786 30.7917 27.6304 31.0855 27.5278C31.6123 27.3438 32.0773 26.9095 32.0773 26.3515V19.6989C32.0773 19.3291 31.8742 18.9904 31.5302 18.855C30.7545 18.5496 29.1857 18.0662 27.0258 18.0662C24.8659 18.0662 23.297 18.5496 22.5214 18.855C22.1773 18.9904 21.9742 19.3291 21.9742 19.6989V26.3515C21.9742 26.9095 22.4393 27.3438 22.9661 27.5278C23.2598 27.6304 23.53 27.7786 23.7602 27.9669C24.2339 28.3543 24.5 28.8797 24.5 29.4276V35.6134M26.8363 16.0005C26.8363 16.0005 24.8157 14.9676 24.8157 13.6766C24.8157 13.1977 25.0483 12.7385 25.4623 12.3999C25.8763 12.0613 26.4378 11.8711 27.0232 11.8711C27.6087 11.8711 28.1702 12.0613 28.5842 12.3999C28.9982 12.7385 29.2308 13.1977 29.2308 13.6766C29.2308 14.9676 27.2152 16.0005 27.2152 16.0005H26.8363Z" fill="white"/>
<path d="M29.5515 35.6134V29.4276C29.5515 28.8797 29.8177 28.3543 30.2913 27.9669C30.5216 27.7786 30.7917 27.6304 31.0855 27.5278C31.6123 27.3438 32.0773 26.9095 32.0773 26.3515V19.6989C32.0773 19.3291 31.8742 18.9904 31.5302 18.855C30.7545 18.5496 29.1857 18.0662 27.0258 18.0662C24.8659 18.0662 23.297 18.5496 22.5214 18.855C22.1773 18.9904 21.9742 19.3291 21.9742 19.6989V26.3515C21.9742 26.9095 22.4393 27.3438 22.9661 27.5278C23.2598 27.6304 23.53 27.7786 23.7602 27.9669C24.2339 28.3543 24.5 28.8797 24.5 29.4276V35.6134H29.5515ZM26.8363 16.0005C26.8363 16.0005 24.8157 14.9676 24.8157 13.6766C24.8157 13.1977 25.0483 12.7385 25.4623 12.3999C25.8763 12.0613 26.4378 11.8711 27.0232 11.8711C27.6087 11.8711 28.1702 12.0613 28.5842 12.3999C28.9982 12.7385 29.2308 13.1977 29.2308 13.6766C29.2308 14.9676 27.2152 16.0005 27.2152 16.0005H26.8363Z" stroke="white"/>
<path d="M15.0398 35.1082V31.4707C15.0398 30.9127 14.5875 30.4604 14.0295 30.4604H11.0659C10.9527 30.4604 10.8608 30.3686 10.8608 30.2553C10.8608 30.2205 10.8697 30.1862 10.8866 30.1558L10.9468 30.0473C12.8559 26.5788 13.8463 22.7856 13.8458 18.9441C13.8458 18.7424 13.9763 18.5631 14.1703 18.508C15.2208 18.2097 16.3208 18.06 17.4278 18.0652C18.7751 18.0652 19.8796 18.276 20.6858 18.5068C20.8799 18.5623 21.0098 18.7422 21.0098 18.9441C21.0098 22.7863 22.0009 26.5779 23.9089 30.0462L23.9691 30.1547C23.986 30.1852 23.9948 30.2194 23.9948 30.2543C23.9948 30.3675 23.903 30.4594 23.7897 30.4594H20.8261C20.2682 30.4594 19.8158 30.9117 19.8158 31.4697V35.1082M17.4276 16.0005C17.3102 16.0005 17.1954 15.972 17.0953 15.9107C16.6416 15.6331 15.3383 14.7429 15.3383 13.6766C15.3383 13.1977 15.5582 12.7385 15.9496 12.3999C16.341 12.0613 16.8719 11.8711 17.4254 11.8711C17.979 11.8711 18.5099 12.0613 18.9013 12.3999C19.2927 12.7385 19.5126 13.1977 19.5126 13.6766C19.5126 14.7424 18.2137 15.6323 17.7606 15.9103C17.6603 15.9719 17.5453 16.0005 17.4276 16.0005Z" fill="white"/>
<path d="M15.0398 35.1082V31.4707C15.0398 30.9127 14.5875 30.4604 14.0295 30.4604H11.0659C10.9527 30.4604 10.8608 30.3686 10.8608 30.2553C10.8608 30.2205 10.8697 30.1862 10.8866 30.1558L10.9468 30.0473C12.8559 26.5788 13.8463 22.7856 13.8458 18.9441C13.8458 18.7424 13.9763 18.5631 14.1703 18.508C15.2208 18.2097 16.3208 18.06 17.4278 18.0652C18.7751 18.0652 19.8796 18.276 20.6858 18.5068C20.8799 18.5623 21.0098 18.7422 21.0098 18.9441C21.0098 22.7863 22.0009 26.5779 23.9089 30.0462L23.9691 30.1547C23.986 30.1852 23.9948 30.2194 23.9948 30.2543C23.9948 30.3675 23.903 30.4594 23.7897 30.4594H20.8261C20.2682 30.4594 19.8158 30.9117 19.8158 31.4697V35.1082H15.0398ZM15.3383 13.6766C15.3383 14.7429 16.6416 15.6331 17.0953 15.9107C17.1954 15.972 17.3102 16.0005 17.4276 16.0005C17.5453 16.0005 17.6603 15.9719 17.7606 15.9103C18.2137 15.6323 19.5126 14.7424 19.5126 13.6766C19.5126 13.1977 19.2927 12.7385 18.9013 12.3999C18.5099 12.0613 17.979 11.8711 17.4254 11.8711C16.8719 11.8711 16.341 12.0613 15.9496 12.3999C15.5582 12.7385 15.3383 13.1977 15.3383 13.6766Z" stroke="#F02222" stroke-width="3.5"/>
<path d="M15.0398 35.1082V31.4707C15.0398 30.9127 14.5875 30.4604 14.0295 30.4604H11.0659C10.9527 30.4604 10.8608 30.3686 10.8608 30.2553C10.8608 30.2205 10.8697 30.1862 10.8866 30.1558L10.9468 30.0473C12.8559 26.5788 13.8463 22.7856 13.8458 18.9441C13.8458 18.7424 13.9763 18.5631 14.1703 18.508C15.2208 18.2097 16.3208 18.06 17.4278 18.0652C18.7751 18.0652 19.8796 18.276 20.6858 18.5068C20.8799 18.5623 21.0098 18.7422 21.0098 18.9441C21.0098 22.7863 22.0009 26.5779 23.9089 30.0462L23.9691 30.1547C23.986 30.1852 23.9948 30.2194 23.9948 30.2543C23.9948 30.3675 23.903 30.4594 23.7897 30.4594H20.8261C20.2682 30.4594 19.8158 30.9117 19.8158 31.4697V35.1082M17.4276 16.0005C17.3102 16.0005 17.1954 15.972 17.0953 15.9107C16.6416 15.6331 15.3383 14.7429 15.3383 13.6766C15.3383 13.1977 15.5582 12.7385 15.9496 12.3999C16.341 12.0613 16.8719 11.8711 17.4254 11.8711C17.979 11.8711 18.5099 12.0613 18.9013 12.3999C19.2927 12.7385 19.5126 13.1977 19.5126 13.6766C19.5126 14.7424 18.2137 15.6323 17.7606 15.9103C17.6603 15.9719 17.5453 16.0005 17.4276 16.0005Z" fill="white"/>
<path d="M15.0398 35.1082V31.4707C15.0398 30.9127 14.5875 30.4604 14.0295 30.4604H11.0659C10.9527 30.4604 10.8608 30.3686 10.8608 30.2553C10.8608 30.2205 10.8697 30.1862 10.8866 30.1558L10.9468 30.0473C12.8559 26.5788 13.8463 22.7856 13.8458 18.9441C13.8458 18.7424 13.9763 18.5631 14.1703 18.508C15.2208 18.2097 16.3208 18.06 17.4278 18.0652C18.7751 18.0652 19.8796 18.276 20.6858 18.5068C20.8799 18.5623 21.0098 18.7422 21.0098 18.9441C21.0098 22.7863 22.0009 26.5779 23.9089 30.0462L23.9691 30.1547C23.986 30.1852 23.9948 30.2194 23.9948 30.2543C23.9948 30.3675 23.903 30.4594 23.7897 30.4594H20.8261C20.2682 30.4594 19.8158 30.9117 19.8158 31.4697V35.1082H15.0398ZM15.3383 13.6766C15.3383 14.7429 16.6416 15.6331 17.0953 15.9107C17.1954 15.972 17.3102 16.0005 17.4276 16.0005C17.5453 16.0005 17.6603 15.9719 17.7606 15.9103C18.2137 15.6323 19.5126 14.7424 19.5126 13.6766C19.5126 13.1977 19.2927 12.7385 18.9013 12.3999C18.5099 12.0613 17.979 11.8711 17.4254 11.8711C16.8719 11.8711 16.341 12.0613 15.9496 12.3999C15.5582 12.7385 15.3383 13.1977 15.3383 13.6766Z" stroke="white"/>
<defs>
<filter id="filter0_d_174_171" x="0" y="0" width="45.9691" height="49" filterUnits="userSpaceOnUse" color-interpolation-filters="sRGB">
<feFlood flood-opacity="0" result="BackgroundImageFix"/>
<feColorMatrix in="SourceAlpha" type="matrix" values="0 0 0 0 0 0 0 0 0 0 0 0 0 0 0 0 0 0 127 0" result="hardAlpha"/>
<feOffset dx="1" dy="4"/>
<feGaussianBlur stdDeviation="2"/>
<feComposite in2="hardAlpha" operator="out"/>
<feColorMatrix type="matrix" values="0 0 0 0 0 0 0 0 0 0 0 0 0 0 0 0 0 0 0.25 0"/>
<feBlend mode="normal" in2="BackgroundImageFix" result="effect1_dropShadow_174_171"/>
<feBlend mode="normal" in="SourceGraphic" in2="effect1_dropShadow_174_171" result="shape"/>
</filter>
</defs>
</svg>
